<svg xmlns="http://www.w3.org/2000/svg" viewBox="0 0 173.65 128.21"><defs><style>.cls-1{fill:#f0ae4f;}</style></defs><g id="Layer_2" data-name="Layer 2"><g id="Object"><path class="cls-1" d="M32.91,63.85A326.85,326.85,0,0,0,66.28,26.47c1.15-1.51-1.41-3-2.54-1.49A310.65,310.65,0,0,1,31.18,62.12C30.05,63.21,31.78,64.94,32.91,63.85Z"/><path class="cls-1" d="M46.49,57.45c-8,8.41-15.14,17.84-22.68,26.69-1,1.15.67,2.84,1.69,1.68,7.65-8.73,15.94-17.14,23.09-26.27C49.73,58.09,47.85,56,46.49,57.45Z"/><path class="cls-1" d="M58.71,53.32A174.67,174.67,0,0,1,81.56,30.83c1.48-1.21-.67-3.41-2.13-2.13a190.38,190.38,0,0,0-22.36,23C56.14,52.82,57.73,54.47,58.71,53.32Z"/><path class="cls-1" d="M60.83,65.88C54.08,73.63,47.35,81.68,41.26,90c-.59.8.69,1.74,1.37,1.05,7.13-7.23,13.95-15.08,20.45-22.88C64.38,66.58,62.19,64.33,60.83,65.88Z"/><path class="cls-1" d="M90.37,54c7-9.15,14.13-18.15,21-27.33,1.33-1.77-1.64-3.46-3-1.73-7,9.11-13.71,18.42-20.64,27.57C86.68,54,89.24,55.49,90.37,54Z"/><path class="cls-1" d="M79.81,75.89C71.05,83.42,64,93.19,58.25,103.17a1.1,1.1,0,0,0,1.9,1.11c6-10,13.52-18.16,22-26C83.79,76.79,81.43,74.5,79.81,75.89Z"/><path class="cls-1" d="M66.78,78.31C71,73.19,75.16,68.11,79.46,63.1a1.5,1.5,0,1,0-2.36-1.82c-3.94,5.15-8,10.24-12,15.3C64.07,77.79,65.78,79.54,66.78,78.31Z"/><path class="cls-1" d="M111.38,39.84C104.05,50.07,97,60.46,90.58,71.26a1.44,1.44,0,0,0,2.49,1.46A287.71,287.71,0,0,1,114.14,42,1.75,1.75,0,1,0,111.38,39.84Z"/><path class="cls-1" d="M50.84,93.75q-9.56,14.52-19.29,28.94c-.8,1.18,1.1,2.26,1.89,1.11q9.91-14.33,20-28.54C54.55,93.69,51.91,92.12,50.84,93.75Z"/><path class="cls-1" d="M77.33,98.32c-6.74,8.51-13.67,16.86-20.65,25.17-.89,1.05.62,2.59,1.52,1.52,7-8.27,14-16.5,21.25-24.58C80.75,99,78.51,96.84,77.33,98.32Z"/><path class="cls-1" d="M107.3,70.51A207.65,207.65,0,0,0,88.85,96.32c-.81,1.31,1.25,2.51,2.06,1.21a215.25,215.25,0,0,1,18.48-24.94C110.59,71.15,108.54,69.06,107.3,70.51Z"/><path class="cls-1" d="M96.8,103.33c-5.57,6-10.56,12.73-15.81,19.06-1.06,1.27.73,3.11,1.83,1.84C88.18,118,93.94,112,99,105.51,100.15,104,98.18,101.84,96.8,103.33Z"/><path class="cls-1" d="M126.77,74.54a72.68,72.68,0,0,0-10.53,13.81c-.81,1.31,1.24,2.5,2.06,1.2a88.52,88.52,0,0,1,10.54-12.94A1.46,1.46,0,0,0,126.77,74.54Z"/><path class="cls-1" d="M121.65,61c3.7-3.61,7.37-7.24,11.19-10.73,1.56-1.43-.9-3.88-2.32-2.32-3.49,3.82-7.12,7.49-10.73,11.19A1.32,1.32,0,0,0,121.65,61Z"/><path class="cls-1" d="M38.24,42.31a67.87,67.87,0,0,1,11-13.44c1.54-1.46-.9-3.89-2.32-2.32A102.3,102.3,0,0,0,36,41C35.09,42.42,37.35,43.74,38.24,42.31Z"/><path class="cls-1" d="M6.18,62a24.78,24.78,0,0,0-6,8.35c-.68,1.5,1.52,2.83,2.24,1.31a22.84,22.84,0,0,1,5.9-7.58C9.7,62.86,7.61,60.78,6.18,62Z"/><path class="cls-1" d="M34,16.15C37.85,11.7,41.78,7.33,45.66,2.9c1.41-1.61-1-4-2.35-2.35C39.54,5.09,35.84,9.68,32.05,14.2,30.92,15.55,32.84,17.5,34,16.15Z"/><path class="cls-1" d="M153.74,17.39a38.1,38.1,0,0,1,8.43-11c1.43-1.25-.8-3.51-2.1-2.09a51.86,51.86,0,0,0-8.51,11.86C150.83,17.56,153,18.84,153.74,17.39Z"/><path class="cls-1" d="M165.29,40.77a127.85,127.85,0,0,0-17.63,15.32c-1.28,1.3.72,3.31,2,2a144.4,144.4,0,0,1,17.24-14.57C168.53,42.33,167,39.57,165.29,40.77Z"/><path class="cls-1" d="M144.46,86.25c-5,4.75-9.8,9.8-14.75,14.63-1.27,1.23.67,3.16,1.93,1.94,5-4.82,10.14-9.47,15-14.36C148.11,87,145.92,84.86,144.46,86.25Z"/><path class="cls-1" d="M116.72,118.77c-2.73,2.22-5.29,4.68-7.92,7-1.39,1.24.64,3.23,2,2,2.68-2.3,5.46-4.51,8-6.92C120.31,119.55,118.2,117.57,116.72,118.77Z"/><path class="cls-1" d="M121.35,17.38c1.54-2.62,3.23-5.19,4.68-7.86A1.47,1.47,0,0,0,123.49,8c-1.53,2.63-2.84,5.4-4.28,8.08A1.24,1.24,0,0,0,121.35,17.38Z"/><path class="cls-1" d="M92.2,23c1.51-1.31,3-2.64,4.55-3.91,1.21-1-.58-2.86-1.75-1.75-1.44,1.38-2.94,2.71-4.41,4.05C89.49,22.42,91.1,24,92.2,23Z"/><path class="cls-1" d="M170.72,6.5a126.68,126.68,0,0,1-21.9,24.34c-1.13,1,.52,2.62,1.64,1.65A189,189,0,0,0,173.23,8.44,1.59,1.59,0,1,0,170.72,6.5Z"/></g></g></svg>