<svg xmlns="http://www.w3.org/2000/svg" viewBox="0 0 60.25 294.11"><defs><style>.cls-1{fill:#222221;}</style></defs><g id="Layer_2" data-name="Layer 2"><g id="Object"><path class="cls-1" d="M33,210.25c9.75,8.48,14.53,18.85,11.09,31.92-3.73,14.15-14.66,24.7-24.94,34.52-.44-1.87-.77-3.75-1.2-5.12-1.62-5.18-3.6-10.17-5.67-15.19-1-2.44-5.35-2.52-5.11.69A192.13,192.13,0,0,0,9.67,277.2c.94,5.07,1.29,11.14,5.74,14.51s10.24,2.32,15.28,2.13l23.49-.9c8.18-.32,8-13.39,0-12.62l-15.66,1.5-6.84.65c15.86-16,31.71-36.38,24.8-60.12C50.74,202.59,30.6,196,18.2,181.62.7,161.36,27.27,141,40.48,127.68c7.85-7.88,15.72-17.24,18.18-28.38,2.52-11.44-1-22.37-7.92-31.55C42.41,56.69,30.26,49.17,22.2,37.93,15.37,28.42,11.89,12.09,24,4.86c3-1.82.38-5.92-2.69-4.6C12.68,3.94,8.43,12.46,7.87,21.49c-.68,11,5,20.71,12,28.72,8.23,9.41,19,17,25,28.19,6.29,11.78,2.64,23.25-5.5,33C25.08,128.49,1,141.48,0,166.41-.81,187.91,19,198.07,33,210.25Z"/></g></g></svg>