<svg xmlns="http://www.w3.org/2000/svg" viewBox="0 0 109.02 108.21"><defs><style>.cls-1{fill:#415b66;}</style></defs><g id="Layer_2" data-name="Layer 2"><g id="Object"><path class="cls-1" d="M107.26,103.33c-11.37-2.9-22.59-5.6-33.14-10.91A103.78,103.78,0,0,1,46,72,100.66,100.66,0,0,1,18.84,14.71Q27.15,21,35.43,27.21c4.45,3.37,8.88-4.21,4.39-7.53Q27,10.22,14.3.66C12-1,8.67.81,8,3.23q-1.3,4.65-2.59,9.3a51.17,51.17,0,0,0-5.4,20c-.33,4.95,7.22,5.77,8.5,1.15,1-3.56,2-7.12,3-10.68A107.68,107.68,0,0,0,39.4,77.36C56.23,94.79,81.78,109,106.61,108.17,109.32,108.08,110,104,107.26,103.33Z"/></g></g></svg>