<svg xmlns="http://www.w3.org/2000/svg" viewBox="0 0 110.26 34.18"><defs><style>.cls-1,.cls-2,.cls-6{fill:#4f46e5;}.cls-2{isolation:isolate;}.cls-3,.cls-5{fill:none;stroke-linecap:round;stroke-linejoin:round;stroke-width:2.44px;}.cls-3,.cls-6{stroke:#4f46e5;}.cls-4{fill:#e0e7ff;}.cls-4,.cls-5{stroke:#e0e7ff;}.cls-4,.cls-6{stroke-miterlimit:10;}</style></defs><g id="Layer_2" data-name="Layer 2"><g id="Layer_1-2" data-name="Layer 1"><path class="cls-1" d="M44,24.12q-5.37,0-5.37-7.38,0-7.59,5.37-7.59t5.37,7.59Q49.4,24.12,44,24.12Zm0-1.88c2.12,0,3.18-1.84,3.18-5.5S46.15,11,44,11s-3.18,1.9-3.18,5.7S41.91,22.24,44,22.24Zm3.39,6.4a4.53,4.53,0,0,1-3.34-1.13A4.66,4.66,0,0,1,43,24.12v-.84h2v.86a2.89,2.89,0,0,0,.6,2,2.34,2.34,0,0,0,1.82.66h1l-.2,1.85Z"/><path class="cls-1" d="M55.27,24.12a3.41,3.41,0,0,1-2.65-1,4.07,4.07,0,0,1-.94-2.87V13.05h2.17v7.18a1.89,1.89,0,0,0,.54,1.44,2.05,2.05,0,0,0,1.49.5,2.17,2.17,0,0,0,1.8-.75,4.1,4.1,0,0,0,.6-2.53l.56,2.94h-.72a3,3,0,0,1-1,1.7A2.93,2.93,0,0,1,55.27,24.12Zm3-3.28V13.05h2.18v7.18ZM58.47,24l-.19-2.6V19.51h2.18V22l1.5.22v1.75Z"/><path class="cls-1" d="M64.13,23.92V22h4.35v1.91Zm.61-9V13.05h5.71V15Zm4.55-3.63a1.44,1.44,0,0,1-1.07-.45,1.52,1.52,0,0,1,2.14-2.15,1.53,1.53,0,0,1,0,2.15A1.44,1.44,0,0,1,69.29,11.33Zm-1,12.59V13.66h2.18V23.92Zm2,0V22h3.55v1.91Z"/><path class="cls-1" d="M76.47,15V13.05h8.74V15ZM78,23.24,76.47,22l7.24-8.22L85.21,15Zm-1.5.68V22h9v1.93Z"/><path class="cls-1" d="M88.82,11.3V9.36h8.86V11.3Zm0,12.62V22h8.86v2Zm3.35,0V9.36h2.14V23.92Z"/><path class="cls-2" d="M5.88,28.31C4.47,26.9,5.4,24,4.68,22.23S1.22,19,1.22,17.09,3.94,13.73,4.68,12s-.21-4.67,1.2-6.07S10.22,5.4,12,4.68s3.23-3.46,5.14-3.46,3.36,2.72,5.14,3.46,4.67-.21,6.08,1.2.47,4.34,1.19,6.07S33,15.18,33,17.09s-2.71,3.36-3.46,5.14.21,4.67-1.19,6.08-4.35.47-6.08,1.19S19,33,17.09,33,13.73,30.25,12,29.5,7.28,29.71,5.88,28.31Z"/><path class="cls-3" d="M5.88,28.31C4.47,26.9,5.4,24,4.68,22.23S1.22,19,1.22,17.09,3.94,13.73,4.68,12s-.21-4.67,1.2-6.07S10.22,5.4,12,4.68s3.23-3.46,5.14-3.46,3.36,2.72,5.14,3.46,4.67-.21,6.08,1.2.47,4.34,1.19,6.07S33,15.18,33,17.09s-2.71,3.36-3.46,5.14.21,4.67-1.19,6.08-4.35.47-6.08,1.19S19,33,17.09,33,13.73,30.25,12,29.5,7.28,29.71,5.88,28.31Z"/><circle class="cls-4" cx="17.09" cy="25.03" r="1.83"/><path class="cls-5" d="M17.09,19.53V18.31A4.27,4.27,0,1,0,12.82,14"/><circle class="cls-6" cx="104.77" cy="25.03" r="1.83"/><path class="cls-3" d="M104.77,19.53V18.31A4.27,4.27,0,1,0,100.5,14"/></g></g></svg>